<svg xmlns="http://www.w3.org/2000/svg" xmlns:xlink="http://www.w3.org/1999/xlink" width="500" zoomAndPan="magnify" viewBox="0 0 375 374.999991" height="500" preserveAspectRatio="xMidYMid meet" version="1.0"><defs><clipPath id="3ba7bb9df3"><path d="M 187.5 0 C 83.945312 0 0 83.945312 0 187.5 C 0 291.054688 83.945312 375 187.5 375 C 291.054688 375 375 291.054688 375 187.5 C 375 83.945312 291.054688 0 187.5 0 Z M 187.5 0 " clip-rule="nonzero"/></clipPath><clipPath id="061248e6a7"><path d="M 102.492188 76.195312 L 272.742188 76.195312 L 272.742188 269 L 102.492188 269 Z M 102.492188 76.195312 " clip-rule="nonzero"/></clipPath><clipPath id="c71a48e3c8"><path d="M 189 163 L 272.742188 163 L 272.742188 298.945312 L 189 298.945312 Z M 189 163 " clip-rule="nonzero"/></clipPath></defs><g clip-path="url(#3ba7bb9df3)"><path stroke-linecap="butt" transform="matrix(0.75, 0, 0, 0.75, 0.0000045, 0)" fill="none" stroke-linejoin="miter" d="M 249.999994 0 C 111.927078 0 -0.000006 111.927084 -0.000006 250 C -0.000006 388.072917 111.927078 500.000001 249.999994 500.000001 C 388.072911 500.000001 499.999995 388.072917 499.999995 250 C 499.999995 111.927084 388.072911 0 249.999994 0 Z M 249.999994 0 " stroke="#ffffff" stroke-width="40" stroke-opacity="1" stroke-miterlimit="4"/></g><g clip-path="url(#061248e6a7)"><path fill="#ffffff" d="M 272.496094 76.261719 L 272.496094 117.085938 L 144.089844 117.085938 L 144.089844 268.78125 L 102.617188 244.527344 C 102.472656 188.433594 102.480469 132.347656 102.503906 76.261719 Z M 272.496094 76.261719 " fill-opacity="1" fill-rule="nonzero"/></g><g clip-path="url(#c71a48e3c8)"><path fill="#ffffff" d="M 272.496094 163.175781 L 272.496094 251.164062 C 272.445312 251.195312 272.414062 251.226562 272.359375 251.257812 C 245.4375 266.679688 218.609375 282.230469 191.75 297.742188 C 191.1875 298.066406 190.535156 298.222656 189.171875 298.75 C 189.171875 282.785156 189.046875 267.628906 189.351562 252.484375 C 189.351562 252.304688 189.382812 252.128906 189.425781 251.941406 L 234.808594 224.902344 L 234.808594 204.75 L 189.613281 204.75 L 189.613281 163.175781 Z M 272.496094 163.175781 " fill-opacity="1" fill-rule="nonzero"/></g></svg>